<svg xmlns="http://www.w3.org/2000/svg" viewBox="0 0 1024 1024"><defs><style>.a{fill:#fff;}</style></defs><path class="a" d="M922.38678,510.3234a1.23484,1.23484,0,0,1-2.125.85346c-2.29317-2.36947-4.13868-4.27743-4.68456-4.78487-32.34317-29.80312-64.03887-60.34336-97.159-89.25-33.48867-29.21543-70.31426-53.44043-113.45508-66.69844-40.76015-12.53085-81.31113-12.36152-122.01152.08965-33.51855,10.23985-63.03281,27.93047-90.76406,48.75879-47.25469,35.4709-86.84942,78.87071-125.32852,123.2666C327.82219,567.592,289.74152,613.492,246.282,654.47129c-25.49,24.0457-52.61367,45.84023-83.124,63.47109a242.41405,242.41405,0,0,1-48.2532,21.426,2.785,2.785,0,0,1-3.59325-2.305c-1.45283-11.34524-2.72668-23.48487-3.83457-36.55588a2.84506,2.84506,0,0,1,1.83336-2.89666c26.90288-10.14707,51.09366-25.15588,73.71973-43.00015,43.1209-34.02656,78.542-75.51387,113.0666-117.818,37.66231-46.159,73.40215-93.91172,114.77988-136.96289,28.76719-29.92265,59.57637-57.26543,95.635-78.26308,69.38789-40.41153,139.59257-40.93946,210.883-5.04024,37.06465,18.6668,69.54727,43.80821,100.68516,70.7127,30.104,25.99315,69.78626,61.77224,101.61345,90.317a7.86808,7.86808,0,0,1,2.61985,5.81917C922.35464,490.50631,922.37819,504.22013,922.38678,510.3234Z"/><path class="a" d="M921.40729,421.34669q.32256,12.80256.52725,26.49326a2.80323,2.80323,0,0,1-4.60042,2.19469c-6.37064-5.3328-12.15868-10.23086-14.55666-12.20378q-57.83819-47.54355-115.44726-95.38594c-31.56622-26.1375-64.27793-50.60156-101.20313-68.85-28.37871-14.025-57.87305-24.51387-89.64844-27.25312-55.26328-4.75137-103.42441,13.72617-147.10312,45.91992-46.01953,33.917-82.26738,77.28691-116.33379,122.56933-32.91094,43.7584-64.60664,88.44317-97.97578,131.843-28.76719,37.41328-60.84141,71.74864-100.01778,98.932a231.01365,231.01365,0,0,1-26.27154,15.80517,2.80381,2.80381,0,0,1-4.08991-2.33561q-.85557-16.3341-1.45948-34.43231a4.23645,4.23645,0,0,1,1.75436-3.56719c19.98883-14.46721,37.71553-31.70368,54.07243-50.52572,31.84512-36.61641,58.10215-77.267,84.46875-117.85781,26.83477-41.28809,53.56993-82.66582,81.61-123.12715,23.90625-34.49473,52.31485-65.10469,86.26172-90.24609,43.20059-31.99454,91.20235-47.185,144.95157-40.53106,39.14648,4.841,75.19511,19.24453,109.37109,38.67832,43.96758,25.01192,83.30332,56.46856,122.79844,87.726,37.24647,29.47219,86.22141,65.683,129.71213,90.82553A6.33489,6.33489,0,0,1,921.40729,421.34669Z"/><path class="a" d="M922.25143,548.9046c-.14368,18.209-.40054,35.29141-.78368,51.34523a2.79617,2.79617,0,0,1-4.67327,2.00726c-19.6828-17.80394-42.92678-38.61518-59.49866-53.68053-29.52422-26.8248-60.25371-52.11562-95.30625-71.51953-35.68008-19.75254-73.32246-32.80137-114.81973-32.1041-47.65312.78691-89.62851,18.47754-128.79492,43.74844-45.44179,29.315-83.62207,67.057-120.03926,106.60195-38.72812,42.065-76.5498,84.95684-115.49707,126.8127-32.31328,34.71386-67.89375,65.73222-108.8332,90.19628A284.78148,284.78148,0,0,1,136.576,831.24176a2.81119,2.81119,0,0,1-3.6593-1.54547A263.36657,263.36657,0,0,1,119.793,786.69275a2.80172,2.80172,0,0,1,1.87965-3.27324q9.75333-3.16068,19.42176-7.29529c43.08106-18.45762,79.48828-46.54746,113.6543-77.97422,44.95371-41.32793,84.42891-87.77578,125.04961-133.1877,35.07246-39.21621,71.141-77.44628,112.68809-110.01855,33.30937-26.10762,68.98945-47.60332,110.20781-59.25762,39.15644-11.0666,77.70527-9.96093,116.19433,2.51016,36.75586,11.91328,69.55723,31.26738,98.47383,56.30918,32.7453,28.36347,71.54311,62.31011,103.99327,92.317A2.804,2.804,0,0,1,922.25143,548.9046Z"/><path class="a" d="M917.81013,340.15734c.85708,12.32579,1.59456,25.44487,2.19959,39.46a2.80392,2.80392,0,0,1-3.962,2.66994C872.03248,362.36017,822.599,331.5555,785.587,304.98184c-39.82383-28.58789-79.14961-57.90293-119.6209-85.54454-37.36347-25.51992-77.4164-46.18886-121.54336-57.77343-69.46757-18.22852-131.92265-4.76133-186.917,41.88574-26.24707,22.27266-47.71289,48.87832-66.11074,77.55586-23.3584,36.42715-45.0832,73.93008-66.51914,111.53262-25.251,44.31621-49.18711,89.40937-78.50215,131.26523-12.14983,17.36589-25.08725,33.99291-39.55266,49.17a2.80021,2.80021,0,0,1-4.82533-1.8904q-.36-25.58907-.3846-54.46548a8.8809,8.8809,0,0,1,1.48474-4.9125c25.65069-38.64143,45.935-80.28505,65.99875-121.99578,25.82871-53.67949,49.66523-108.34512,81.27129-159.05625,19.72265-31.66582,41.308-61.82754,69.98554-86.17207,30.11192-25.55977,64.66641-39.68438,104.301-40.48125.62754-.01,1.265-.01992,1.89258-.02988,36.37734-.34864,70.93184,8.22773,104.809,20.68886,42.17461,15.50918,80.74336,37.90137,118.326,62.05664,30.32109,19.4836,59.915,40.1127,90.07676,59.86524,51.73012,33.87514,115.18336,71.21837,176.13774,91.03535A2.76566,2.76566,0,0,1,917.81013,340.15734Z"/><path class="a" d="M918.871,667.09432c-1.38427,24.04609-3.19874,45.2519-5.466,64.27954a2.27483,2.27483,0,0,1-3.65691,1.52866c-35.89353-28.00356-71.54884-56.331-107.81513-83.85-41.33789-31.367-84.98672-58.80938-135.26953-73.96-42.70254-12.86953-85.33535-13.21817-127.87852.56777-33.85722,10.97695-64.04883,28.64766-92.16855,50.25293-43.51934,33.41895-80.29512,73.65117-116.51309,114.491-26.24707,29.61386-52.29492,59.407-79.02011,88.58261A593.75829,593.75829,0,0,1,189.24629,887.83a1.73207,1.73207,0,0,1-1.823.22624c-12.11-5.66888-21.889-12.16312-29.73573-19.74314a1.4218,1.4218,0,0,1,.308-2.25777c35.98983-20.24426,67.56856-46.69694,96.3448-76.47392,35.58047-36.83555,69.68672-75.13536,103.87266-113.29571,34.97285-39.027,70.384-77.55586,111.66211-110.11816,37.34355-29.46446,77.765-52.84278,125.12929-62.15625a191.67262,191.67262,0,0,1,82.48653,1.70332c34.74375,8.3373,66.58886,23.60742,96.45176,43.06113,47.91312,31.22628,98.7,77.05493,143.53631,115.05948A3.97047,3.97047,0,0,1,918.871,667.09432Z"/><path class="a" d="M908.26594,257.56777c1.71011,9.64291,3.24318,19.88941,4.62089,30.86972a2.79586,2.79586,0,0,1-3.24768,3.105c-28.67609-5.08653-59.16417-15.43575-81.92731-25.53785-55.8709-24.80274-106.97051-58.02246-158.81719-89.97715-38.35957-23.62734-76.94824-46.98574-116.4334-68.64082q-.31-.1707-.62039-.34079a2.79968,2.79968,0,0,1,1.36672-5.25829q24.34547.22052,46.04441.72066a10.74568,10.74568,0,0,1,5.22693,1.49757q3.14559,1.86193,6.2837,3.73944c55.49238,33.13008,110.32734,67.44551,168.9873,94.868,39.32753,18.398,80.06625,32.38836,123.27308,37.90544a2.77559,2.77559,0,0,1,2.37734,2.17456Q906.90464,249.83619,908.26594,257.56777Z"/><path class="a" d="M901.30236,791.315a2.80558,2.80558,0,0,1,1.12394,2.98037A239.05443,239.05443,0,0,1,889.53938,833.31a132.288,132.288,0,0,1-10.14625,18.99,2.81592,2.81592,0,0,1-3.78773.90549c-6.14012-3.6247-12.22943-7.3212-18.23985-11.15972-42.41367-27.09375-83.95078-55.57207-126.67325-82.16777-46.48769-28.93652-95.53535-52.285-149.9121-62.92324-53.56-10.469-104.13165-1.87266-152.16329,22.87031-39.12656,20.151-73.05351,47.70293-102.66738,79.78711-31.00481,33.59265-61.05707,68.05036-91.15535,102.4898a2.813,2.813,0,0,1-2.765.88312q-7.67895-1.83411-14.662-3.87912a2.79312,2.79312,0,0,1-1.21306-4.62831c28.40638-29.43022,54.7613-60.77053,81.616-91.64811,38.13047-43.858,77.10762-86.79961,123.924-121.84219,32.642-24.43417,68.28223-42.62285,108.25547-51.12949,39.89356-8.48672,79.05-3.98437,117.67852,8.52657,47.44394,15.35976,89.56875,40.69042,130.0998,68.85C814.84562,733.01525,860.78592,763.32871,901.30236,791.315Z"/><path class="a" d="M893.42044,200.22123a2.8089,2.8089,0,0,1-2.90277,3.78348,285.42694,285.42694,0,0,1-30.95076-4.41955,435.61272,435.61272,0,0,1-111.40312-40.1127c-26.41073-13.78538-52.62663-31.36189-78.721-48.99189a2.80152,2.80152,0,0,1,1.74433-5.11511c31.64418,1.91084,58.30386,4.59077,81.5478,8.11956a11.99532,11.99532,0,0,1,4.95432,1.96694,301.29413,301.29413,0,0,0,111.27606,46.25042,9.86281,9.86281,0,0,1,5.91221,3.62064A121.69008,121.69008,0,0,1,889.53938,190.7Q891.5525,195.26381,893.42044,200.22123Z"/><path class="a" d="M823.84727,888.557a2.79409,2.79409,0,0,1-.46613,5.02018c-15.73073,5.882-34.48936,10.70908-56.949,14.68882-6.03642,1.06525-12.30247,2.06592-18.83468,3.002a10.47966,10.47966,0,0,1-6.61315-1.24146q-7.816-4.38979-15.61116-8.83282a952.41542,952.41542,0,0,0-109.35117-53.799,449.14972,449.14972,0,0,0-87.08847-25.84864,259.52576,259.52576,0,0,0-93.13477-1.35468,252.83752,252.83752,0,0,0-110.39707,47.55351A423.97033,423.97033,0,0,0,277.459,910.0378a3.37385,3.37385,0,0,1-2.889.96956q-8.81266-1.296-16.99229-2.74134-.943-.16691-1.87662-.33613a2.801,2.801,0,0,1-1.62916-4.572q11.39432-13.39475,23.00929-26.57838c27.1834-30.70957,56.19961-59.45683,90.8836-81.90879,47.90214-31.01836,100.19707-45.62109,157.26328-41.41758,39.92343,2.93848,77.67539,14.81192,114.1623,30.61,50.39238,21.80449,96.91,50.76093,143.49727,79.47832C796.50765,871.936,810.12769,880.3385,823.84727,888.557Z"/><path class="a" d="M514.68938,876.36113c42.12851,7.47838,81.82476,21.61218,120.42935,38.7147a2.80256,2.80256,0,0,1-1.02507,5.36152c-34.85039,1.32852-75.04793,1.95327-122.09374,1.95327-78.73009,0-138.30331-1.7472-185.6853-5.62954a2.80156,2.80156,0,0,1-1.29455-5.14C381.24044,875.42331,444.58459,863.90913,514.68938,876.36113Z"/><path class="a" d="M257.72723,115.70776a2.79806,2.79806,0,0,1,2.58036,4.60828l-.07036.07966c-22.84043,25.89844-40.46133,55.35293-56.44864,85.76368-24.58359,46.77656-43.47949,96.0832-63.71015,144.79218-10.32556,24.862-20.76925,49.6796-32.202,74.027a2.80733,2.80733,0,0,1-5.34281-1.26854c.92361-39.135,2.56173-72.20305,4.99781-100.78253a11.83447,11.83447,0,0,1,.67114-3.0385c4.57588-12.60784,9.07288-25.24207,13.59756-37.86707,16.52519-46.159,32.95078-92.36777,55.11386-136.23574q1.10335-2.18549,2.22178-4.35591a6.31376,6.31376,0,0,1,2.67328-2.70774q4.2223-2.21257,8.871-4.26193c17.591-7.74961,39.4752-13.86563,66.89766-18.72657Z"/><path class="a" d="M512,2C56.65554,2,2,56.65566,2,512s54.65554,510,510,510c455.34422,0,510-54.65566,510-510S967.34422,2,512,2ZM935.11076,853.39119q-2.80917,6.38-5.88707,12.242v.00012q-3.88491,7.42584-8.24768,14.07469a138.526,138.526,0,0,1-40.57088,40.81c-.94624.63752-1.91242,1.25509-2.88858,1.87266a184.25027,184.25027,0,0,1-24.12536,12.73005c-21.27667,9.36331-46.87623,16.62481-78.28309,22.183C716.11945,967.74274,637.438,972.19531,512,972.19531c-125.43814,0-204.1197-4.45257-263.10834-14.89161-31.40686-5.55822-57.0164-12.81972-78.283-22.183a181.17211,181.17211,0,0,1-27.33288-14.80194,141.53977,141.53977,0,0,1-21.81435-17.78025,138.7429,138.7429,0,0,1-12.53094-14.4135,172.30833,172.30833,0,0,1-20.05125-34.73379c-9.36331-21.26658-16.62487-46.87617-22.183-78.283C56.2572,716.11951,51.80469,637.43808,51.80469,512S56.2572,307.88042,66.69624,248.89178c5.55816-31.40686,12.81972-57.01639,22.183-78.283a184.84792,184.84792,0,0,1,12.73011-24.12536,139.54043,139.54043,0,0,1,44.87395-44.874,184.24319,184.24319,0,0,1,24.12536-12.73011c21.26657-9.36325,46.87611-16.62481,78.283-22.183C307.8803,56.2572,386.56186,51.80469,512,51.80469c125.438,0,204.11945,4.45251,263.1081,14.89161,31.40686,5.55816,57.00642,12.81972,78.28309,22.183a184.88275,184.88275,0,0,1,24.12536,12.73011,139.12515,139.12515,0,0,1,42.69269,41.5072,179.28164,179.28164,0,0,1,14.90152,27.49217c9.37316,21.26664,16.63472,46.87617,22.19276,78.283C967.74256,307.88042,972.19531,386.56192,972.19531,512s-4.45275,204.11951-14.89179,263.10822C951.74548,806.515,944.48392,832.12461,935.11076,853.39119Z"/></svg>