<svg xmlns="http://www.w3.org/2000/svg" x="0px" y="0px" viewBox="0 0 128 128">
	<style type="text/css">
		.st0 {
			fill: #F1E4D6;
		}

		.st1 {
			fill: #976E36;
		}

		.st2 {
			fill: #F15E22;
		}

		.st3 {
			fill: #E67A24;
		}
	</style>
	<path class="st0" d="M109.18,128H18.82C8.43,128,0,119.57,0,109.18V18.82C0,8.43,8.43,0,18.82,0h90.36C119.57,0,128,8.43,128,18.82
		v90.36C128,119.57,119.57,128,109.18,128z" />
	<polygon class="st1" points="94.12,33.88 94.12,3.76 64,33.88 			" />
	<polygon class="st1" points="33.88,33.88 64,33.88 33.88,3.76 			" />
	<polygon class="st1" points="94.12,33.88 94.12,64 124.24,33.88 		" />
	<polygon class="st1" points="33.88,94.12 33.88,124.24 64,94.12 			" />
	<polygon class="st1" points="94.12,94.12 64,94.12 94.12,124.24 			" />
	<polygon class="st1" points="33.88,33.88 3.76,33.88 33.88,64 			" />
	<polygon class="st1" points="33.88,94.12 33.88,64 3.76,94.12 			" />
	<circle class="st2" cx="18.82" cy="18.82" r="15.06" />
	<circle class="st2" cx="109.18" cy="18.82" r="15.06" />
	<circle class="st2" cx="109.18" cy="109.18" r="15.06" />
	<circle class="st2" cx="18.82" cy="109.18" r="15.06" />
	<path class="st3" d="M64,3.76c-8.32,0-15.06,6.74-15.06,15.06h30.12C79.06,10.51,72.32,3.76,64,3.76z" />
	<path class="st3" d="M64,124.24c8.32,0,15.06-6.74,15.06-15.06H48.94C48.94,117.49,55.68,124.24,64,124.24z" />
	<path class="st3" d="M124.24,64c0-8.32-6.74-15.06-15.06-15.06v30.12C117.49,79.06,124.24,72.32,124.24,64z" />
	<path class="st3" d="M3.76,64c0,8.32,6.74,15.06,15.06,15.06V48.94C10.51,48.94,3.76,55.68,3.76,64z" />
	<path d="M94.12,64c0-16.94-10.23-21.17-17.65-21.17s-12.69,6.19-12.69,6.19S49.38,48.58,41.41,64H64v0
		c0,16.63,13.48,30.12,30.12,30.12h30.12L94.12,64z M75.29,56.47c-2.08,0-3.76-1.69-3.76-3.76c0-2.08,1.69-3.76,3.76-3.76
		c2.08,0,3.76,1.69,3.76,3.76C79.06,54.79,77.37,56.47,75.29,56.47z" />
</svg>